<mxfile host="app.diagrams.net" agent="Mozilla/5.0 (Windows NT 10.0; Win64; x64) AppleWebKit/537.36 (KHTML, like Gecko) Chrome/130.0.0.0 Safari/537.36" version="25.0.3">
  <diagram id="C5RBs43oDa-KdzZeNtuy" name="Page-1">
    <mxGraphModel grid="1" page="1" gridSize="10" guides="1" tooltips="1" connect="1" arrows="1" fold="1" pageScale="1" pageWidth="827" pageHeight="1169" math="0" shadow="0">
      <root>
        <mxCell id="WIyWlLk6GJQsqaUBKTNV-0" />
        <mxCell id="WIyWlLk6GJQsqaUBKTNV-1" parent="WIyWlLk6GJQsqaUBKTNV-0" />
        <mxCell id="RTc-hQadSk9Fq2NqTM5a-0" value="" style="edgeStyle=orthogonalEdgeStyle;rounded=0;orthogonalLoop=1;jettySize=auto;html=1;" edge="1" parent="WIyWlLk6GJQsqaUBKTNV-1" source="3lpaqQM1rxdxOUKxLQ1T-0" target="3lpaqQM1rxdxOUKxLQ1T-7">
          <mxGeometry relative="1" as="geometry" />
        </mxCell>
        <mxCell id="3lpaqQM1rxdxOUKxLQ1T-0" value="" style="ellipse;whiteSpace=wrap;html=1;" vertex="1" parent="WIyWlLk6GJQsqaUBKTNV-1">
          <mxGeometry x="370" y="80" width="120" height="80" as="geometry" />
        </mxCell>
        <mxCell id="RTc-hQadSk9Fq2NqTM5a-1" value="" style="edgeStyle=orthogonalEdgeStyle;rounded=0;orthogonalLoop=1;jettySize=auto;html=1;" edge="1" parent="WIyWlLk6GJQsqaUBKTNV-1" source="3lpaqQM1rxdxOUKxLQ1T-1" target="3lpaqQM1rxdxOUKxLQ1T-8">
          <mxGeometry relative="1" as="geometry" />
        </mxCell>
        <mxCell id="3lpaqQM1rxdxOUKxLQ1T-1" value="" style="shape=parallelogram;perimeter=parallelogramPerimeter;whiteSpace=wrap;html=1;fixedSize=1;" vertex="1" parent="WIyWlLk6GJQsqaUBKTNV-1">
          <mxGeometry x="370" y="230" width="120" height="60" as="geometry" />
        </mxCell>
        <mxCell id="3lpaqQM1rxdxOUKxLQ1T-9" value="" style="edgeStyle=orthogonalEdgeStyle;rounded=0;orthogonalLoop=1;jettySize=auto;html=1;" edge="1" parent="WIyWlLk6GJQsqaUBKTNV-1" source="3lpaqQM1rxdxOUKxLQ1T-2" target="3lpaqQM1rxdxOUKxLQ1T-3">
          <mxGeometry relative="1" as="geometry" />
        </mxCell>
        <mxCell id="3lpaqQM1rxdxOUKxLQ1T-15" value="" style="edgeStyle=orthogonalEdgeStyle;rounded=0;orthogonalLoop=1;jettySize=auto;html=1;" edge="1" parent="WIyWlLk6GJQsqaUBKTNV-1" source="3lpaqQM1rxdxOUKxLQ1T-2" target="3lpaqQM1rxdxOUKxLQ1T-4">
          <mxGeometry relative="1" as="geometry" />
        </mxCell>
        <mxCell id="3lpaqQM1rxdxOUKxLQ1T-2" value="" style="rhombus;whiteSpace=wrap;html=1;" vertex="1" parent="WIyWlLk6GJQsqaUBKTNV-1">
          <mxGeometry x="370" y="340" width="100" height="80" as="geometry" />
        </mxCell>
        <mxCell id="3lpaqQM1rxdxOUKxLQ1T-23" value="" style="edgeStyle=orthogonalEdgeStyle;rounded=0;orthogonalLoop=1;jettySize=auto;html=1;" edge="1" parent="WIyWlLk6GJQsqaUBKTNV-1" source="3lpaqQM1rxdxOUKxLQ1T-3" target="3lpaqQM1rxdxOUKxLQ1T-18">
          <mxGeometry relative="1" as="geometry" />
        </mxCell>
        <mxCell id="3lpaqQM1rxdxOUKxLQ1T-3" value="" style="rounded=1;whiteSpace=wrap;html=1;" vertex="1" parent="WIyWlLk6GJQsqaUBKTNV-1">
          <mxGeometry x="590" y="350" width="120" height="60" as="geometry" />
        </mxCell>
        <mxCell id="3lpaqQM1rxdxOUKxLQ1T-20" value="" style="edgeStyle=orthogonalEdgeStyle;rounded=0;orthogonalLoop=1;jettySize=auto;html=1;" edge="1" parent="WIyWlLk6GJQsqaUBKTNV-1" source="3lpaqQM1rxdxOUKxLQ1T-4" target="3lpaqQM1rxdxOUKxLQ1T-5">
          <mxGeometry relative="1" as="geometry" />
        </mxCell>
        <mxCell id="3lpaqQM1rxdxOUKxLQ1T-4" value="" style="rounded=1;whiteSpace=wrap;html=1;" vertex="1" parent="WIyWlLk6GJQsqaUBKTNV-1">
          <mxGeometry x="360" y="490" width="120" height="60" as="geometry" />
        </mxCell>
        <mxCell id="3lpaqQM1rxdxOUKxLQ1T-5" value="" style="ellipse;whiteSpace=wrap;html=1;" vertex="1" parent="WIyWlLk6GJQsqaUBKTNV-1">
          <mxGeometry x="590" y="480" width="120" height="80" as="geometry" />
        </mxCell>
        <mxCell id="3lpaqQM1rxdxOUKxLQ1T-6" value="start" style="text;html=1;align=center;verticalAlign=middle;whiteSpace=wrap;rounded=0;" vertex="1" parent="WIyWlLk6GJQsqaUBKTNV-1">
          <mxGeometry x="400" y="105" width="60" height="30" as="geometry" />
        </mxCell>
        <mxCell id="3lpaqQM1rxdxOUKxLQ1T-7" value="nhập n" style="text;html=1;align=center;verticalAlign=middle;whiteSpace=wrap;rounded=0;" vertex="1" parent="WIyWlLk6GJQsqaUBKTNV-1">
          <mxGeometry x="400" y="245" width="60" height="30" as="geometry" />
        </mxCell>
        <mxCell id="3lpaqQM1rxdxOUKxLQ1T-8" value="nếu n &amp;gt; 5" style="text;html=1;align=center;verticalAlign=middle;whiteSpace=wrap;rounded=0;" vertex="1" parent="WIyWlLk6GJQsqaUBKTNV-1">
          <mxGeometry x="390" y="365" width="60" height="30" as="geometry" />
        </mxCell>
        <mxCell id="3lpaqQM1rxdxOUKxLQ1T-10" value="false" style="text;html=1;align=center;verticalAlign=middle;whiteSpace=wrap;rounded=0;" vertex="1" parent="WIyWlLk6GJQsqaUBKTNV-1">
          <mxGeometry x="470" y="350" width="60" height="30" as="geometry" />
        </mxCell>
        <mxCell id="3lpaqQM1rxdxOUKxLQ1T-13" value="true" style="text;html=1;align=center;verticalAlign=middle;whiteSpace=wrap;rounded=0;rotation=90;" vertex="1" parent="WIyWlLk6GJQsqaUBKTNV-1">
          <mxGeometry x="414" y="430" width="60" height="30" as="geometry" />
        </mxCell>
        <mxCell id="3lpaqQM1rxdxOUKxLQ1T-16" value="không đạt" style="text;html=1;align=center;verticalAlign=middle;whiteSpace=wrap;rounded=0;" vertex="1" parent="WIyWlLk6GJQsqaUBKTNV-1">
          <mxGeometry x="600" y="365" width="60" height="30" as="geometry" />
        </mxCell>
        <mxCell id="3lpaqQM1rxdxOUKxLQ1T-17" value="đạt" style="text;html=1;align=center;verticalAlign=middle;whiteSpace=wrap;rounded=0;" vertex="1" parent="WIyWlLk6GJQsqaUBKTNV-1">
          <mxGeometry x="390" y="505" width="60" height="30" as="geometry" />
        </mxCell>
        <mxCell id="3lpaqQM1rxdxOUKxLQ1T-18" value="end" style="text;html=1;align=center;verticalAlign=middle;whiteSpace=wrap;rounded=0;" vertex="1" parent="WIyWlLk6GJQsqaUBKTNV-1">
          <mxGeometry x="620" y="515" width="60" height="30" as="geometry" />
        </mxCell>
      </root>
    </mxGraphModel>
  </diagram>
</mxfile>
